<?xml version="1.0" encoding="UTF-8"?>
<!DOCTYPE svg PUBLIC "-//W3C//DTD SVG 1.1//EN" "http://www.w3.org/Graphics/SVG/1.1/DTD/svg11.dtd">
<!-- Creator: CorelDRAW 2019 (64-Bit) -->
<svg xmlns="http://www.w3.org/2000/svg" xml:space="preserve" width="11.377mm" height="8.4666mm" version="1.1" style="shape-rendering:geometricPrecision; text-rendering:geometricPrecision; image-rendering:optimizeQuality; fill-rule:evenodd; clip-rule:evenodd"
viewBox="0 0 7664.38 5703.73"
 xmlns:xlink="http://www.w3.org/1999/xlink">
 <defs>
  <style type="text/css">
   <![CDATA[
    .fil4 {fill:none}
    .fil1 {fill:#091721}
    .fil0 {fill:#50660C}
    .fil3 {fill:#EDEEEE}
    .fil2 {fill:#FC2900}
   ]]>
  </style>
   <clipPath id="id0">
    <path d="M-0 5703.73l7664.38 0 0 -5703.73 -7664.38 0 0 5703.73z"/>
   </clipPath>
 </defs>
 <g id="Capa_x0020_1">
  <metadata id="CorelCorpID_0Corel-Layer"/>
  <g>
  </g>
  <g style="clip-path:url(#id0)">
   <g>
    <path class="fil0" d="M3243.4 4405.96c-93.1,-162.96 -15.63,-1551.81 155.62,-1679 0,0 96.47,-55.71 99.91,226.83 3.3,26.41 10.11,1349.03 -255.52,1452.17zm-1129.82 773.18c708.5,404.27 862.3,-345.06 1673.67,-260.64 171.52,192.6 318.18,528.7 567.37,600.58 532.54,153.53 575.72,-217.66 779.04,-444.36 501.42,-558.95 913.91,467.6 1788.4,153.06 -125.71,-414.65 -521.15,-195.7 -762.19,-1061.98 -141.4,-508.15 -50.59,-1124.56 -176.17,-1593.51 -200.28,-110.55 -1138.71,-72.49 -1417.54,-75.92 -489.29,-0.2 -1047.36,-26.41 -1527.29,17.11 -48.98,527.89 -31.12,1143.83 -149.76,1650.1 -195.03,832.66 -694.49,702.64 -775.53,1015.56z"/>
    <path class="fil1" d="M3125.1 1049.25c118.9,181.69 159.05,835.96 -51.87,910.07 -13.07,-232.28 -160.2,-794.4 51.87,-910.07zm-1977.5 930.01c102.33,-469.55 286.18,-519.94 743.67,-520.61l-3.3 518.86 -740.37 1.75zm2100.31 -1268.06c-489.42,137.16 -360.95,-678.46 -1197.59,35.77 -214.43,567.84 -132.92,370.72 -735.05,561.64 -327.67,103.88 -423.07,566.22 -456.41,861.83l2110.55 28.43c498.59,-0.47 414.58,100.11 412.96,-897.8 -0.54,-329.36 243.06,-908.79 2.29,-1137.97 -68.38,-25.87 -104.42,6.53 -117.56,45.74 -15.9,47.56 -17.99,169.63 -19.2,502.36z"/>
    <path class="fil2" d="M3552.55 1396.32l1285.57 7.01c606.64,7.28 521.49,526 103.21,560.23 -404.81,33.14 -923.81,-8.29 -1349.03,4.38l-89.46 265.63c495.28,-206.68 2008.49,312.05 1982.96,-559.28 -19.54,-666.4 -1073.5,-516.24 -1555.78,-500.47l-19.74 0.67 -344.92 16.57c-40.15,-4.72 -26.48,120.45 -12.8,205.27z"/>
    <path class="fil3" d="M3243.4 4405.96c265.63,-103.14 258.83,-1425.76 255.52,-1452.17 -37.46,-303.22 -16.71,-122.95 -99.91,-226.83 -200.55,148.95 -134.06,591.62 -151.31,859 -16.51,256.47 -115.94,624.63 -4.31,820z"/>
   </g>
  </g>
  <polygon class="fil4" points="-0,5703.73 7664.38,5703.73 7664.38,0 -0,0 "/>
 </g>
</svg>
