<?xml version="1.0" encoding="UTF-8"?>
<!DOCTYPE svg PUBLIC "-//W3C//DTD SVG 1.1//EN" "http://www.w3.org/Graphics/SVG/1.1/DTD/svg11.dtd">
<!-- Creator: CorelDRAW 2019 (64-Bit) -->
<svg xmlns="http://www.w3.org/2000/svg" xml:space="preserve" width="11.377mm" height="8.4666mm" version="1.1" style="shape-rendering:geometricPrecision; text-rendering:geometricPrecision; image-rendering:optimizeQuality; fill-rule:evenodd; clip-rule:evenodd"
viewBox="0 0 107.53 80.02"
 xmlns:xlink="http://www.w3.org/1999/xlink">
 <defs>
  <style type="text/css">
   <![CDATA[
    .fil5 {fill:none}
    .fil1 {fill:#091721}
    .fil3 {fill:#0D1A22}
    .fil4 {fill:#0E1D22}
    .fil0 {fill:#50660C}
    .fil2 {fill:#FC2900}
   ]]>
  </style>
   <clipPath id="id0">
    <path d="M-0 80.02l107.53 0 0 -80.02 -107.53 0 0 80.02z"/>
   </clipPath>
 </defs>
 <g id="Capa_x0020_1">
  <metadata id="CorelCorpID_0Corel-Layer"/>
  <g>
  </g>
  <g style="clip-path:url(#id0)">
   <g>
    <path class="fil0" d="M82.15 42.3c0,-10.23 0.58,-7.58 7.16,-12.34 6.84,-4.94 8.41,-4.63 9.31,-9.78 -4.7,0.27 -5.47,1.43 -8.4,3.18 -2.44,-4.84 1.6,-2.49 -3.43,-4.26 -2.19,6.12 1.71,5.22 -3.43,9.39 -0.16,-0.23 -0.31,-0.58 -0.37,-0.76l-0.86 -13.2c-3.36,1.97 -4.51,3.29 -8.2,5.76 -7.51,5.04 -2.11,2.28 -5.83,7.94 -3.38,5.14 -12.05,5.65 -14.35,11.78 -2.15,11.85 3.95,17.6 4.76,19.25 3.78,7.7 -1.39,8.45 -4.77,11.64l0.16 14.52 28.13 -6.79 0.11 -36.33z"/>
    <path class="fil1" d="M43.27 32.89c7.89,1.24 6.35,4.55 14.1,-0.55 8.91,-5.86 8.88,-4 8.68,-9.25 -6.81,-1.05 -8.03,2.29 -13.24,3.42 -4.56,0.99 -7.06,-3.05 -11.17,-4.43 -6.34,-2.13 -18.15,6.53 -22.26,9.93 0.08,4.38 1.76,9.1 4.9,12.16 0.83,-6.31 -0.27,-7.02 4.19,-9.47 4.44,7.08 -9.62,12.45 9.09,19.16 8.81,3.16 10.51,9.71 12.82,11.38 2.08,1.5 -1.4,1.29 2.98,0.82 7.26,-0.78 -0.16,-9.54 -2.43,-13.05 -5.32,-8.27 -2.91,-3.64 -10.78,-8.48l3.11 -11.63z"/>
    <path class="fil2" d="M53.87 22.56c14.34,-3.61 28.88,-4.82 28.14,-22.44l-28.2 0.13 0.06 22.3z"/>
    <path class="fil1" d="M38.65 6.91c-1.71,2.36 -4.49,5.52 -1.99,10.01 1.49,2.67 5.09,4.37 9.09,2.62 6.14,-2.68 6.56,-14.97 -7.1,-12.63z"/>
    <path class="fil3" d="M38.24 66.81c3.83,12.73 14.1,-6.05 -2.33,-10.02 0.56,3.33 1.35,6.77 2.33,10.02z"/>
    <path class="fil4" d="M21.6 74.06c3.77,-1.26 12.68,-17.77 5.85,-21.11 -1.16,3.09 -1.97,7.96 -3.27,11.37 -2.02,5.26 -4.84,5.88 -2.57,9.74z"/>
    <circle class="fil1" cx="42.75" cy="13.44" r="7.43"/>
   </g>
  </g>
  <polygon class="fil5" points="-0,80.02 107.53,80.02 107.53,0 -0,0 "/>
 </g>
</svg>
