<?xml version="1.0" encoding="UTF-8"?>
<!DOCTYPE svg PUBLIC "-//W3C//DTD SVG 1.1//EN" "http://www.w3.org/Graphics/SVG/1.1/DTD/svg11.dtd">
<!-- Creator: CorelDRAW 2019 (64-Bit) -->
<svg xmlns="http://www.w3.org/2000/svg" xml:space="preserve" width="11.377mm" height="8.4666mm" version="1.1" style="shape-rendering:geometricPrecision; text-rendering:geometricPrecision; image-rendering:optimizeQuality; fill-rule:evenodd; clip-rule:evenodd"
viewBox="0 0 104.59 77.84"
 xmlns:xlink="http://www.w3.org/1999/xlink">
 <defs>
  <style type="text/css">
   <![CDATA[
    .fil3 {fill:none}
    .fil0 {fill:#373435}
    .fil1 {fill:#50660C}
    .fil2 {fill:#FC2900}
   ]]>
  </style>
   <clipPath id="id0">
    <path d="M-0 77.84l104.59 0 0 -77.84 -104.59 0 0 77.84z"/>
   </clipPath>
 </defs>
 <g id="Capa_x0020_1">
  <metadata id="CorelCorpID_0Corel-Layer"/>
  <g>
  </g>
  <g style="clip-path:url(#id0)">
   <g>
    <path class="fil0" d="M43.88 4.01c-12.4,4.4 -5.33,20.89 5.42,17.32 11.04,-3.68 6.08,-21.4 -5.42,-17.32z"/>
    <path class="fil1" d="M18.47 31.9c0.08,6.2 7.85,7.11 8.66,4.75 0.61,-1.78 -1.75,-3.76 -2.72,-4.36 -1.86,-1.14 -4.01,-1.03 -5.94,-0.39z"/>
    <circle class="fil0" cx="46.4" cy="12.62" r="8.76"/>
    <rect class="fil0" x="26.83" y="38.45" width="2.84" height="30.88" rx="0.93" ry="1.28"/>
    <path class="fil2" d="M28.18 76.34l12.44 0.04c0,-0.01 0,-0.03 0,-0.04 0,-4.93 -5.57,-8.92 -12.44,-8.92 -6.87,0 -12.44,3.99 -12.44,8.92 0,0.01 0,0.03 0,0.04l12.44 -0.04z"/>
    <path class="fil1" d="M21.54 21.64c-3.04,4.75 2.41,9.34 4.21,7.95 1.36,-1.05 0.55,-3.74 0.11,-4.68 -0.84,-1.8 -2.53,-2.79 -4.32,-3.27z"/>
    <path class="fil1" d="M36.78 32.11c-0.08,5.93 -7.51,6.8 -8.29,4.54 -0.58,-1.7 1.67,-3.6 2.6,-4.17 1.78,-1.09 3.84,-0.99 5.68,-0.37z"/>
    <path class="fil1" d="M33.75 21.06c2.45,4.86 -3.23,8.73 -4.82,7.22 -1.2,-1.14 -0.16,-3.64 0.35,-4.5 0.99,-1.64 2.71,-2.43 4.47,-2.71z"/>
    <path class="fil0" d="M41.48 43.13l-11.94 0.06 -2.9 0c-3.93,0.01 -6.58,1 -6.47,4.89 0.11,3.84 2.79,4.54 6.66,4.56l2.42 0c19.17,0 16.23,2.61 23.31,-9.19 1.27,-2.11 2.97,-4.81 3.98,-6.88 2.39,1.31 8.57,8.09 10.74,10.51 -1.81,7.02 -15.02,21.82 -10.81,27.56 2.03,2.77 7.83,1.83 11.8,1.83 4.38,0 8.75,-0.01 13.13,0 4.53,0.01 9.27,0.44 10.01,-3.75 1.36,-7.74 -11.26,-5.58 -21.7,-5.63 0.68,-1.4 2.84,-3.34 3.92,-4.68 5.96,-7.42 15.32,-12.85 13.54,-21.04 -0.83,-3.83 -9.71,-11.57 -12.51,-14.33 -2.71,-2.67 -5.95,-6.3 -8.81,-8.53 -4.85,-3.77 -8.57,-1.51 -11.19,2.86 -2.21,3.69 -4.26,7.18 -6.46,10.89 -1.83,3.09 -4.57,8.48 -6.72,10.86z"/>
   </g>
  </g>
  <polygon class="fil3" points="-0,77.84 104.59,77.84 104.59,0 -0,0 "/>
 </g>
</svg>
