<?xml version="1.0" encoding="UTF-8"?>
<!DOCTYPE svg PUBLIC "-//W3C//DTD SVG 1.1//EN" "http://www.w3.org/Graphics/SVG/1.1/DTD/svg11.dtd">
<!-- Creator: CorelDRAW 2019 (64-Bit) -->
<svg xmlns="http://www.w3.org/2000/svg" xml:space="preserve" width="11.377mm" height="8.4666mm" version="1.1" style="shape-rendering:geometricPrecision; text-rendering:geometricPrecision; image-rendering:optimizeQuality; fill-rule:evenodd; clip-rule:evenodd"
viewBox="0 0 107.53 80.02"
 xmlns:xlink="http://www.w3.org/1999/xlink">
 <defs>
  <style type="text/css">
   <![CDATA[
    .fil4 {fill:none}
    .fil0 {fill:#50660C}
    .fil3 {fill:#F6F9FA}
    .fil1 {fill:#FBFBFB}
    .fil2 {fill:#FC2900}
   ]]>
  </style>
   <clipPath id="id0">
    <path d="M-0 80.02l107.53 0 0 -80.02 -107.53 0 0 80.02z"/>
   </clipPath>
 </defs>
 <g id="Capa_x0020_1">
  <metadata id="CorelCorpID_0Corel-Layer"/>
  <g>
  </g>
  <g style="clip-path:url(#id0)">
   <g>
    <path class="fil0" d="M44.99 61.98c4.98,-0.2 2.66,3.48 9.64,1.15 4.32,-1.45 -1.54,-0.46 3.72,-1.39 0.74,8.22 -13.55,7.92 -13.35,0.24zm-13.79 -13.72c15.67,8.04 16.78,-1.77 20.89,-3.66 4.55,2.59 2.39,5.3 7.62,6.21 4.23,0.73 9.37,-1.63 13.18,-2.67 -0.55,7.55 -1.32,14.48 -8.07,15.86 -4.38,-2.91 -2.41,-5.45 -8.59,-6.19 -20.4,-2.45 -16.01,14.07 -22.58,3.29 -1.83,-3 -2.98,-8.98 -2.44,-12.84zm-11.21 -9.93c1.33,3.25 -0.05,1.47 5.51,4.44l1.45 0.86c-0.79,17.53 8.41,35.13 25.12,34.91 15.89,-0.21 26.56,-17.82 24.58,-35.86 8.59,-1.43 10.16,-6.17 1.61,-8.14 -6.7,-1.55 -53.19,-5.11 -58.27,3.79z"/>
    <path class="fil1" d="M31.21 48.26c-0.54,3.85 0.61,9.84 2.44,12.84 6.57,10.77 2.18,-5.74 22.58,-3.29 6.18,0.74 4.21,3.29 8.59,6.19 6.75,-1.38 7.52,-8.31 8.07,-15.86 -3.81,1.04 -8.94,3.41 -13.18,2.67 -5.23,-0.91 -3.07,-3.62 -7.62,-6.21 -4.11,1.89 -5.22,11.7 -20.89,3.66z"/>
    <polygon class="fil2" points="45.03,29.34 58.3,29.55 58.55,5.42 45.14,5.4 "/>
    <path class="fil0" d="M22.51 29.84c2.39,1.78 11.75,0.02 18.01,-0.2l0.38 -21.52c-9.44,2.37 -11.94,9.74 -14.49,15.01 -3.35,6.93 -3.07,0.49 -3.9,6.71z"/>
    <path class="fil0" d="M62.72 29.64c3.21,0.09 6.26,0.17 9.29,0.5 3.59,0.39 6.41,1.35 9.07,-0.3 -1.16,-7.1 -0.36,0.44 -3.6,-6.24 -1.57,-3.24 -1.11,-3.79 -3.54,-7.15 -2.61,-3.61 -5.69,-6.34 -10.77,-8.52l-0.46 21.72z"/>
    <path class="fil3" d="M54.63 63.13c-6.97,2.33 -4.66,-1.35 -9.64,-1.15 -0.19,7.67 14.09,7.98 13.35,-0.24 -5.26,0.93 0.6,-0.05 -3.72,1.39z"/>
   </g>
  </g>
  <polygon class="fil4" points="-0,80.02 107.53,80.02 107.53,0 -0,0 "/>
 </g>
</svg>
