<?xml version="1.0" encoding="UTF-8"?>
<!DOCTYPE svg PUBLIC "-//W3C//DTD SVG 1.1//EN" "http://www.w3.org/Graphics/SVG/1.1/DTD/svg11.dtd">
<!-- Creator: CorelDRAW 2019 (64-Bit) -->
<svg xmlns="http://www.w3.org/2000/svg" xml:space="preserve" width="11.377mm" height="8.4666mm" version="1.1" style="shape-rendering:geometricPrecision; text-rendering:geometricPrecision; image-rendering:optimizeQuality; fill-rule:evenodd; clip-rule:evenodd"
viewBox="0 0 7664.38 5703.73"
 xmlns:xlink="http://www.w3.org/1999/xlink">
 <defs>
  <style type="text/css">
   <![CDATA[
    .fil3 {fill:none}
    .fil1 {fill:#091721}
    .fil0 {fill:#50660C}
    .fil2 {fill:#FC2900}
   ]]>
  </style>
   <clipPath id="id0">
    <path d="M-0 5703.73l7664.38 0 0 -5703.73 -7664.38 0 0 5703.73z"/>
   </clipPath>
 </defs>
 <g id="Capa_x0020_1">
  <metadata id="CorelCorpID_0Corel-Layer"/>
  <g>
  </g>
  <g style="clip-path:url(#id0)">
   <g>
    <ellipse class="fil0" cx="3811.56" cy="4718.85" rx="3068.63" ry="836.1"/>
    <path class="fil1" d="M4678.19 3686.68c-267.45,-319.12 -208.84,-3113.32 -85.35,-3352.54 186.34,121.06 137.43,-90.68 158.11,360.21l2.9 2226.56c33.89,653.6 104.62,539.88 -75.65,765.76zm-2496.97 -3240.24l15.09 1706.95 1284.29 594.72c-284.83,258.96 -808.27,371.6 -1135.68,560.5 -144.1,159.32 -2.76,702.37 -509.97,1118.43l-277.82 237.47c-8.89,9.3 -28.56,30.58 -39.95,47.97 495.55,338.99 826.19,-167.34 1233.02,-223.52 636.35,-87.91 413.97,669.29 1061.37,571.48 461.26,-69.73 364.52,-701.16 967.6,-541.36 429.33,113.78 665.45,577.68 1174.21,193.41l-363.31 -313.93c-113.38,-110.68 -186.07,-213.69 -270.61,-409.46 -317.97,-736.06 -216.38,-3205.61 -216.38,-4057.06l-2921.05 -11.05 -0.81 525.47z"/>
    <path class="fil2" d="M4678.19 3686.68c180.28,-225.88 109.54,-112.17 75.65,-765.76l-2.9 -2226.56c-20.68,-450.89 28.23,-239.15 -158.11,-360.21 -123.48,239.22 -182.09,3033.42 85.35,3352.54z"/>
   </g>
  </g>
  <polygon class="fil3" points="-0,5703.73 7664.38,5703.73 7664.38,0 -0,0 "/>
 </g>
</svg>
