<?xml version="1.0" encoding="UTF-8"?>
<!DOCTYPE svg PUBLIC "-//W3C//DTD SVG 1.1//EN" "http://www.w3.org/Graphics/SVG/1.1/DTD/svg11.dtd">
<!-- Creator: CorelDRAW 2019 (64-Bit) -->
<svg xmlns="http://www.w3.org/2000/svg" xml:space="preserve" width="11.377mm" height="8.4666mm" version="1.1" style="shape-rendering:geometricPrecision; text-rendering:geometricPrecision; image-rendering:optimizeQuality; fill-rule:evenodd; clip-rule:evenodd"
viewBox="0 0 104.59 77.84"
 xmlns:xlink="http://www.w3.org/1999/xlink">
 <defs>
  <style type="text/css">
   <![CDATA[
    .str0 {stroke:#50660C;stroke-width:1.84;stroke-miterlimit:22.9256}
    .str1 {stroke:#E6E7E8;stroke-width:0.7;stroke-miterlimit:22.9256}
    .fil7 {fill:none}
    .fil3 {fill:#FEFEFE}
    .fil5 {fill:#E6E7E8}
    .fil4 {fill:#D2D3D5}
    .fil2 {fill:#373435}
    .fil6 {fill:#F5874F}
    .fil0 {fill:#50660C}
    .fil1 {fill:#50660C}
   ]]>
  </style>
   <clipPath id="id0">
    <path d="M-0 77.84l104.59 0 0 -77.84 -104.59 0 0 77.84z"/>
   </clipPath>
 </defs>
 <g id="Capa_x0020_1">
  <metadata id="CorelCorpID_0Corel-Layer"/>
  <g>
  </g>
  <g style="clip-path:url(#id0)">
   <g>
    <rect class="fil0" x="3.01" y="12.7" width="21.15" height="3.8" rx="1.27" ry="1.27"/>
    <rect class="fil0" x="3.01" y="22.55" width="21.15" height="3.8" rx="1.27" ry="1.27"/>
    <rect class="fil1" x="3.01" y="33.22" width="21.15" height="3.8" rx="1.27" ry="1.27"/>
    <rect class="fil1" x="3.01" y="42.62" width="21.15" height="3.8" rx="1.27" ry="1.27"/>
    <rect class="fil2" x="30.13" y="13.24" width="21.15" height="32.54" rx="0.36" ry="3.06"/>
    <rect class="fil2" x="26.88" y="10.17" width="4.7" height="41.55" rx="0.08" ry="3.91"/>
    <rect class="fil3" x="32.87" y="17.74" width="16.63" height="3.8" rx="1" ry="1.27"/>
    <rect class="fil4" x="32.87" y="28.02" width="16.63" height="3.8" rx="1" ry="1.27"/>
    <rect class="fil4" x="32.87" y="38.24" width="16.63" height="3.8" rx="1" ry="1.27"/>
    <path class="fil1 str0" d="M3.97 50.63c16.91,-0.03 33.81,-0.06 50.71,-0.09 -0.03,-12.35 -0.06,-24.71 -0.09,-37.06 5.13,0.53 8.86,1.85 13.02,4.43 0.21,1.78 0.49,4.14 0.7,5.92 1.36,0.12 2.67,-0.07 4.02,0.05 0.09,-2.02 0.16,-4.31 0.25,-6.33 -1.27,-1.24 -2.53,-2.47 -3.8,-3.71 0.34,-1.89 1.99,-3.4 3.8,-3.44 1.54,1.33 3.07,2.65 4.61,3.98 -0.06,4.7 -0.12,9.4 -0.18,14.1 2.62,0.11 5.24,0.21 7.87,0.32 0.93,0.34 1.33,0.98 1.36,1.58 0,3.18 0,6.36 0,9.54 5.01,0.14 10.04,1.57 14.15,3.35 1.54,4.91 1.36,10.5 0.27,15.82 -32.2,0 -64.39,0 -96.59,0 -0.03,-2.82 -0.06,-5.64 -0.1,-8.45z"/>
    <circle class="fil2 str1" cx="20.08" cy="59.67" r="8.5"/>
    <circle class="fil2 str1" cx="38.61" cy="59.67" r="8.5"/>
    <circle class="fil2 str1" cx="87.34" cy="59.67" r="8.5"/>
    <circle class="fil3 str0" cx="20.08" cy="59.67" r="4.25"/>
    <circle class="fil3 str0" cx="38.61" cy="59.67" r="4.25"/>
    <circle class="fil3 str0" cx="87.34" cy="59.67" r="4.25"/>
    <rect class="fil3" x="67.4" y="31.37" width="16.63" height="3.8" rx="1" ry="1.27"/>
    <rect class="fil5" x="57.48" y="19.19" width="1.58" height="33.75" rx="0.09" ry="11.25"/>
    <circle class="fil6 str1" cx="7.37" cy="33.22" r="2.12"/>
    <circle class="fil6 str1" cx="19.12" cy="22.55" r="2.12"/>
    <circle class="fil6 str1" cx="19.12" cy="42.62" r="2.12"/>
    <circle class="fil6 str1" cx="7.55" cy="12.7" r="2.12"/>
    <g id="_1566588409872">
     <circle class="fil6" cx="37.66" cy="19.64" r="1.06"/>
     <circle class="fil6" cx="41.18" cy="19.64" r="1.06"/>
     <circle class="fil6" cx="44.71" cy="19.64" r="1.06"/>
    </g>
   </g>
  </g>
  <polygon class="fil7" points="-0,77.84 104.59,77.84 104.59,0 -0,0 "/>
 </g>
</svg>
